#!OML:ASF F:\VICON\USERDATA\INSTALL\rory3\rory3.ASF
:FULLY-SPECIFIED
:DEGREES
9
root 0.5369457409458622 17.61709536878689 -13.927996518170314 6.702229788441063 -1.6883481760513641 -1.011292455543357
lfemur -12.371911999079522 6.030486141840267 -18.651808529385843
ltibia 19.088708838247083
lfoot -10.788301641570564 7.186100169891877
ltoes 5.960326642684247
rfemur -14.219811155111655 -2.722233887444366 19.47280421162371
rtibia 22.890908639558674
rfoot -14.161300176771798 -3.9849114944332342
rtoes 12.21429653768407
lowerback -3.5189969598775823 -0.28351557951194273 -0.22647775139181653
upperback 3.288814757259279 -0.42698767664340703 1.2434298545604774
thorax 5.390129734048422 -0.24701133690895516 1.3812303135878234
lowerneck -12.919199168823752 0.79307100115436 -1.7822715779998093
upperneck 33.249393005646915 1.2924360219784585 1.0201806803917846
head 13.296992665637978 0.47011712961833063 0.9050547603462995
lclavicle -1.1859575570331033e-17 -8.162223908272525e-16
lhumerus -19.420794861202218 -7.365184584296104 91.22549887715638
lradius 24.019099954105926
lwrist 4.783810349520577
lhand -24.207205876405364 -2.7437054641392193
lfingers 7.125019999999999
lthumb 2.2772741165197328 27.223894472731594
rclavicle -1.1859575570331033e-17 -8.162223908272525e-16
rhumerus -21.994189847665684 -10.215190224526264 -84.05580314313508
rradius 28.926503042372833
rwrist 28.38999511841364
rhand -17.966602548347264 -26.917596901392475
rfingers 7.125019999999999
rthumb 8.302557416048096 -56.73439714349969
10
root 0.5402046002793499 17.6173953754202 -13.92549653289353 6.719409628020587 -1.6500684700756716 -0.9965058482048172
lfemur -12.387810664956085 6.020416298602254 -18.68080825816743
ltibia 19.081708631521945
lfoot -10.787201601554385 7.144270348445015
ltoes 6.004196562117231
rfemur -14.230710983775053 -2.7167739313245036 19.44730443718943
rtibia 22.903008832392473
rfoot -14.162000177085782 -4.04253126434209
rtoes 12.157596583601425
lowerback -3.5251463447408566 -0.27511873637055967 -0.22604475757755005
upperback 3.2671748313520115 -0.4154468353599029 1.2407899334327777
thorax 5.370619941892443 -0.24104850085796778 1.3791303390137308
lowerneck -12.848599540879922 0.7961450387539895 -1.7907015163248394
upperneck 33.22369272185347 1.2917460238623764 1.0392505779831989
head 13.270292747968668 0.4718891390291333 0.9130466363148051
lclavicle -1.1859566813655083e-17 -8.162224021157889e-16
lhumerus -19.31459521340231 -8.037833859845055 91.4500981899779
lradius 24.51649855821936
lwrist 5.310299771143068
lhand -24.281905547664298 -2.8086551707930782
lfingers 7.125019999999999
lthumb 2.2051344462356157 27.159694807554047
rclavicle -1.1859566813655083e-17 -8.162224021157889e-16
rhumerus -21.89509025113677 -9.739380693597639 -84.3262021677706
rradius 29.208402326152225
rwrist 28.11509593827905
rhand -17.97510252524681 -26.963496391125155
rfingers 7.125019999999999
rthumb 8.29438748519093 -56.78059664761736
11
root 0.5434434622672735 17.617295366096567 -13.922096524835268 6.725529562699684 -1.6066488109278994 -0.9755234116014665
lfemur -12.379111460602527 6.016306333185098 -18.71530790674096
ltibia 19.060207996580452
lfoot -10.797101629487095 7.089220573988534
ltoes 6.010226538137603
rfemur -14.226610702533668 -2.723413861072297 19.41440476936635
rtibia 22.925908418910986
rfoot -14.182700136890658 -4.087651083623133
rtoes 12.091396572663081
lowerback -3.534976596553167 -0.2752397365306339 -0.22399378341273257
upperback 3.2754848145274473 -0.41579483049675914 1.2396599723041346
thorax 5.384939906972058 -0.2411994973937729 1.3767703954474846
lowerneck -12.83739959424124 0.8060029545744025 -1.7790816030253886
upperneck 33.22669278199715 1.3072159362408868 1.0276506412676352
head 13.268992578437839 0.4787770841870973 0.9087247036786912
lclavicle -1.1859568253656378e-17 -8.16222371944579e-16
lhumerus -19.248195460519593 -8.344283400717998 91.51869796558442
lradius 24.808297684024325
lwrist 5.570989294925946
lhand -24.37770529110789 -2.841194924515087
lfingers 7.125019999999999
lthumb 2.112544802315069 27.128094973672354
rclavicle -1.1859568253656378e-17 -8.16222371944579e-16
rhumerus -21.830090500250677 -9.520971104980806 -84.43180177760475
rradius 29.274202221405435
rwrist 28.01409623120726
rhand -17.925502808307908 -27.048095397678424
rfingers 7.125019999999999
rthumb 8.342257222869167 -56.86339572506325
12
root 0.5465563291782504 17.616995380800855 -13.919196529433384 6.734369708415316 -1.5692391030406614 -0.9685786014742016
lfemur -12.38811165742672 6.013006401361642 -18.733007745253328
ltibia 19.06950879389308
lfoot -10.809901543958494 7.054950723197123
ltoes 5.991506497912371
rfemur -14.221309795916255 -2.7242638742885514 19.39800491505029
rtibia 22.929808380404793
rfoot -14.197000112855624 -4.122410933342685
rtoes 12.143396627718896
lowerback -3.526246709728267 -0.2729397817594523 -0.1965650576460417
upperback 3.2742547626758873 -0.4143628521875287 1.2408999246028414
thorax 5.378409782572906 -0.23942354562261378 1.36279063920627
lowerneck -12.797499805383547 0.8297938488648886 -1.77239165768057
upperneck 33.248092748147236 1.3395058126231345 1.0292006268653933
head 13.268992578437839 0.4940140018229312 0.9128726384841783
lclavicle -1.1859573001710058e-17 -8.162223742022991e-16
lhumerus -19.245695431871404 -8.370983344339031 91.45919816762186
lradius 24.77869779598903
lwrist 5.578059342211796
lhand -24.346205362925073 -2.783325246499901
lfingers 7.125019999999999
lthumb 2.1429746872355095 27.185694634814997
rclavicle -1.1859573001710058e-17 -8.162223742022991e-16
rhumerus -21.85529035140386 -9.609581011239893 -84.35450206742436
rradius 29.09490258151555
rwrist 28.18189578038269
rhand -17.948702646624568 -27.031895580798714
rfingers 7.125019999999999
rthumb 8.319857330568798 -56.84809588823774
13
root 0.5490052231347017 17.61709536878689 -13.91509658166129 6.721699607109028 -1.5402493286159047 -0.9542299890335626
lfemur -12.356510927691986 6.000436569319806 -18.755307536908834
ltibia 19.063308262351327
lfoot -10.834501495079115 7.029710825174932
ltoes 6.06068633629616
rfemur -14.1887113611346 -2.7522036197055173 19.37460512941068
rtibia 22.931708424105715
rfoot -14.217700077989125 -4.137220877913121
rtoes 12.129096607711617
lowerback -3.506226721081947 -0.27450675110170353 -0.183380203509608
upperback 3.289934722278462 -0.4175358079512291 1.2455697881782937
thorax 5.38342977745426 -0.24066651189294513 1.360050726283831
lowerneck -12.774599923634565 0.8821736667043392 -1.7773516204841158
upperneck 33.29349256425381 1.4050556336509579 1.067160419840164
head 13.281792630558703 0.5268697625060549 0.9386902180715611
lclavicle -1.1859577555171858e-17 -8.162223883643013e-16
lhumerus -19.304595272007695 -8.067923749532051 91.2816987361633
lradius 24.457798694435436
lwrist 5.204549803786507
lhand -24.3239055135204 -2.8239050668943273
lfingers 7.125019999999999
lthumb 2.164554542977926 27.14489488802736
rclavicle -1.1859577555171858e-17 -8.162223883643013e-16
rhumerus -21.945990104383995 -9.939510484780033 -84.11540296439684
rradius 28.728503437628596
rwrist 28.572094566276657
rhand -17.946502678989322 -27.01109582766501
rfingers 7.125019999999999
rthumb 8.321987328563734 -56.82709611852147
14
root 0.5504381603138001 17.61689537147722 -13.911996581196854 6.725719696592627 -1.5146495258497883 -0.9427332948879776
lfemur -12.349711629569242 5.993946681151347 -18.77180735808706
ltibia 19.056208749557662
lfoot -10.844701511274447 7.014170896567324
ltoes 6.038876488889876
rfemur -14.18751073575857 -2.755503610975827 19.35820530641997
rtibia 22.95640899221766
rfoot -14.246600027579618 -4.1588707858497695
rtoes 12.108796633764856
lowerback -3.4872770727146785 -0.27483074601177093 -0.16341442166366554
upperback 3.295894688583155 -0.41894178719353065 1.2419798983844537
thorax 5.37867983106317 -0.240518515574457 1.3450609828769167
lowerneck -12.748500059434207 0.9521023956826851 -1.7093921727794505
upperneck 33.353192688085024 1.4891154296688667 1.0670804152266236
head 13.300792567150781 0.5717655022985668 0.9396662103960066
lclavicle -1.1859579228670627e-17 -8.162223756390217e-16
lhumerus -19.422594909540617 -7.531494475034736 90.98929962009935
lradius 23.886800333712042
lwrist 4.546910781134114
lhand -24.16840599420511 -2.7119656714144
lfingers 7.125019999999999
lthumb 2.314764068886945 27.25519424408471
rclavicle -1.1859579228670627e-17 -8.162223756390217e-16
rhumerus -22.06378951287611 -10.594589630058858 -83.74160431929234
rradius 28.139904811564655
rwrist 29.211292756562862
rhand -17.987002444846297 -26.91529694612574
rfingers 7.125019999999999
rthumb 8.282877544534212 -56.73289717529406
15
root 0.5520150943455204 17.61659538618151 -13.908196563013492 6.748849592699742 -1.5232694570632108 -0.9346535117854071
lfemur -12.353711523731011 5.976686930892562 -18.787707201499416
ltibia 19.042408690456167
lfoot -10.840701501666347 7.056870718275522
ltoes 6.00637648307818
rfemur -14.212009659265995 -2.7607535538928656 19.34360543802429
rtibia 22.9733088253575
rfoot -14.256900009315132 -4.149480827300507
rtoes 12.068896745390035
lowerback -3.4868064151241933 -0.27630971872635 -0.15722249122752513
upperback 3.304334529287395 -0.4219217456693123 1.2529795475755072
thorax 5.387389723634923 -0.24205647395924798 1.352770831385162
lowerneck -12.733000139230676 1.0205050654544041 -1.6737724600495616
upperneck 33.4065928749724 1.5808350757132037 1.0640504325403788
head 13.319092544465661 0.6155131894458739 0.9463061038626318
lclavicle -1.1859581875128359e-17 -8.162223869275793e-16
lhumerus -19.52849449155141 -6.693925204512314 90.6085007799978
lradius 23.111202572437346
lwrist 3.748872290858184
lhand -23.90000690245915 -2.389457474332103
lfingers 7.125019999999999
lthumb 2.573923146227102 27.574792489186848
rclavicle -1.1859581875128359e-17 -8.162223869275793e-16
rhumerus -22.268888897927283 -11.250388105009222 -83.26820614836403
rradius 27.57460618445656
rwrist 29.81679093817533
rhand -18.01120232913337 -26.900697100363804
rfingers 7.125019999999999
rthumb 8.259507679397137 -56.719197313506115
16
root 0.5526980651253879 17.616495376857873 -13.905696577736707 6.781249596394029 -1.5357693618198573 -0.9260097445140405
lfemur -12.375711811541159 5.974556995242761 -18.80330705602884
ltibia 19.033908439432786
lfoot -10.833201545941082 7.063720680877476
ltoes 5.985826623604645
rfemur -14.246409888477867 -2.774143435388121 19.33210552623711
rtibia 22.981408370621033
rfoot -14.263699997556921 -4.132260900268267
rtoes 12.067296692780413
lowerback -3.4721665296242845 -0.2764667157624628 -0.15705847670347572
upperback 3.314114508675573 -0.4223017400591235 1.2556994674650521
thorax 5.389309898452387 -0.24234546563907367 1.3555207920328363
lowerneck -12.728200166449044 1.0737049101125762 -1.6508726419295023
upperneck 33.45799281136633 1.653014789290251 1.0637904387946346
head 13.339092545461753 0.6494179759930602 0.9534649847610553
lclavicle -1.185957362440694e-17 -8.162223992423243e-16
lhumerus -19.659493948978444 -5.75765647815476 90.16450216232919
lradius 22.136405393717126
lwrist 2.679663830938864
lhand -24.14050613703049 -2.596556331772078
lfingers 7.125019999999999
lthumb 2.341693996724578 27.37029365103436
rclavicle -1.185957362440694e-17 -8.162223992423243e-16
rhumerus -22.51168790131732 -12.073987202026741 -82.73180799761955
rradius 27.005307442231576
rwrist 30.493888829913256
rhand -17.991002441828417 -26.996196003393823
rfingers 7.125019999999999
rthumb 8.279057559864103 -56.813996270870454
